<svg version="1.1" xmlns="http://www.w3.org/2000/svg" viewBox="0 0 787.5 508.439453125" width="787.5" height="508.439453125">
  <!-- svg-source:excalidraw -->
  
  <defs>
    <style class="style-fonts">
      @font-face {
        font-family: "Virgil";
        src: url("https://excalidraw.com/Virgil.woff2");
      }
      @font-face {
        font-family: "Cascadia";
        src: url("https://excalidraw.com/Cascadia.woff2");
      }
    </style>
    
  </defs>
  <rect x="0" y="0" width="787.5" height="508.439453125" fill="#ffffff"></rect><g stroke-linecap="round" transform="translate(339.21484375 10) rotate(0 75.765625 58.150390625)"><path d="M29.08 0 M29.08 0 C49.28 1.82, 69.36 -0.49, 122.46 0 M29.08 0 C64.09 0.23, 99.18 0.55, 122.46 0 M122.46 0 C141.5 0.53, 152.4 10.93, 151.53 29.08 M122.46 0 C144.1 1.23, 152.36 11.39, 151.53 29.08 M151.53 29.08 C149.95 50.52, 150.67 70.99, 151.53 87.23 M151.53 29.08 C151.03 44.55, 152.41 60.86, 151.53 87.23 M151.53 87.23 C150.07 108.1, 141.57 114.47, 122.46 116.3 M151.53 87.23 C149.28 105.5, 139.91 115.65, 122.46 116.3 M122.46 116.3 C87.47 114.02, 53.91 115.76, 29.08 116.3 M122.46 116.3 C99.16 116.85, 75.54 116.24, 29.08 116.3 M29.08 116.3 C9.73 115.15, 1.74 105, 0 87.23 M29.08 116.3 C9.18 115.2, 0.7 108.75, 0 87.23 M0 87.23 C-1.31 69.36, 0.91 56.53, 0 29.08 M0 87.23 C0.25 69.1, 0.29 51.75, 0 29.08 M0 29.08 C1.38 8.44, 10.63 -1.62, 29.08 0 M0 29.08 C-1.78 9.57, 10.25 -0.17, 29.08 0" stroke="#1e1e1e" stroke-width="1" fill="none"></path></g><g transform="translate(381.5605010986328 43.150390625) rotate(0 33.41996765136719 25)"><text x="33.41996765136719" y="0" font-family="Virgil, Segoe UI Emoji" font-size="20px" fill="#1e1e1e" text-anchor="middle" style="white-space: pre;" direction="ltr" dominant-baseline="text-before-edge">BGP</text><text x="33.41996765136719" y="25" font-family="Virgil, Segoe UI Emoji" font-size="20px" fill="#1e1e1e" text-anchor="middle" style="white-space: pre;" direction="ltr" dominant-baseline="text-before-edge">Router</text></g><g stroke-linecap="round" transform="translate(10 220.447265625) rotate(0 127 138.99609375)"><path d="M32 0 M32 0 C87.76 -2.09, 145.79 -1.04, 222 0 M32 0 C106.5 -1.63, 180.67 -0.52, 222 0 M222 0 C245.24 0, 255.95 12.61, 254 32 M222 0 C245.21 -1.56, 255.97 9.33, 254 32 M254 32 C251.41 109.63, 252.73 190.42, 254 245.99 M254 32 C253.25 95.21, 252.41 156.78, 254 245.99 M254 245.99 C254.37 269.21, 243.66 279.38, 222 277.99 M254 245.99 C254.83 266.42, 241.87 279.92, 222 277.99 M222 277.99 C151.76 278.56, 81.9 276.45, 32 277.99 M222 277.99 C174.06 276.59, 124.75 277.05, 32 277.99 M32 277.99 C8.89 278.02, 0.21 267.72, 0 245.99 M32 277.99 C12.58 279.24, 1.51 267.1, 0 245.99 M0 245.99 C1.55 166.36, 0.03 85.74, 0 32 M0 245.99 C0.94 198.12, 0.84 149.84, 0 32 M0 32 C0.46 10.81, 8.91 1.22, 32 0 M0 32 C-0.23 11.83, 11.39 0.5, 32 0" stroke="#1e1e1e" stroke-width="1" fill="none"></path></g><g stroke-linecap="round"><g transform="translate(335.98828125 64.63671875) rotate(0 -105.3378134733997 75.57746614670381)"><path d="M0.25 -0.55 C-34.76 24.67, -175.31 125.23, -210.58 150.35 M-1.08 1.78 C-36.1 27.25, -175.79 126.8, -210.93 151.7" stroke="#1e1e1e" stroke-width="1" fill="none"></path></g></g><mask></mask><g stroke-linecap="round"><g transform="translate(491.3515625 65.5390625) rotate(0 79.28965458236638 75.20923583451659)"><path d="M-0.77 -0.18 C25.74 24.74, 132.84 125.08, 159.35 150.26 M1.03 -1.32 C27.42 23.73, 132.77 126.71, 158.84 151.74" stroke="#1e1e1e" stroke-width="1" fill="none"></path></g></g><mask></mask><g stroke-linecap="round" transform="translate(105.16015625 244.1796875) rotate(0 33.5 30)"><path d="M14.93 0.69 L55.36 -0.3 L62.32 3.89 L64.36 9.84 L65.89 14.15 L68.35 47.38 L62.39 58.12 L57.6 60.76 L52.19 58.33 L11.09 58.34 L4.84 54.61 L2.15 47.55 L1.78 13.16 L4 3.19 L8.34 0.75 L13.55 1" stroke="none" stroke-width="0" fill="#a5d8ff"></path><path d="M15 0 M15 0 C24.37 0.98, 36.12 -1.04, 52 0 M15 0 C27.04 0.04, 39.97 1.3, 52 0 M52 0 C61.97 0.64, 67.75 6.86, 67 15 M52 0 C60.9 -0.3, 67.93 3.33, 67 15 M67 15 C65.62 24.48, 66.66 33.29, 67 45 M67 15 C67.09 23.43, 66.93 32.36, 67 45 M67 45 C65.19 54.83, 63.09 58.61, 52 60 M67 45 C65.6 55.07, 60.07 60.37, 52 60 M52 60 C39.06 58.98, 26.42 61.33, 15 60 M52 60 C43.5 60.37, 34.84 60.58, 15 60 M15 60 C4.84 58.52, 0.05 53.07, 0 45 M15 60 C5.14 60.17, -0.73 55.72, 0 45 M0 45 C-0.77 37.22, 0.65 29.47, 0 15 M0 45 C-0.89 33.97, 0.63 21.27, 0 15 M0 15 C1.68 5.3, 6.24 0.17, 15 0 M0 15 C-1.64 5.31, 3.19 2.27, 15 0" stroke="#1e1e1e" stroke-width="1" fill="none"></path></g><g stroke-linecap="round" transform="translate(93.1328125 249.9609375) rotate(0 33.5 30)"><path d="M16.98 0.54 L55.96 -0.97 L65.23 5.56 L64.73 7.83 L65.7 13.16 L65.85 48.36 L63.52 57.85 L57.46 57.4 L50.46 59.01 L13.46 60.7 L2.46 54.36 L1.06 48.03 L-1.65 12.93 L2.37 5.55 L7.85 1.36 L14.19 1.37" stroke="none" stroke-width="0" fill="#a5d8ff"></path><path d="M15 0 M15 0 C27.62 -1.21, 40.07 -0.99, 52 0 M15 0 C25.65 0.61, 36.98 -0.83, 52 0 M52 0 C62.6 0.47, 65.48 5.01, 67 15 M52 0 C61.26 -1.64, 68.86 4.42, 67 15 M67 15 C64.77 26.22, 68.29 36.25, 67 45 M67 15 C66.7 26.68, 66.29 39.2, 67 45 M67 45 C68.49 56.89, 61.92 59.9, 52 60 M67 45 C67.8 55.79, 63.28 58.49, 52 60 M52 60 C42.43 61.21, 31.4 61.11, 15 60 M52 60 C42.41 59.62, 30.43 60.39, 15 60 M15 60 C6.37 60.16, -0.02 55.66, 0 45 M15 60 C2.71 58.45, 0.96 56.67, 0 45 M0 45 C-0.8 34.27, 0.53 24.87, 0 15 M0 45 C0.91 33.79, -0.58 20.61, 0 15 M0 15 C-1.59 5.55, 4 1.62, 15 0 M0 15 C0.98 4.76, 5.69 -1.08, 15 0" stroke="#1e1e1e" stroke-width="1" fill="none"></path></g><g stroke-linecap="round" transform="translate(80.50390625 257.29296875) rotate(0 33.5 30)"><path d="M16.55 1.73 L56.7 1.04 L61.27 3.08 L64.1 9.3 L65.53 16.6 L65.52 47.17 L63.9 56.62 L58.07 57.73 L52.63 59.31 L9.57 58.01 L3.09 56.17 L0.2 50.08 L0.56 11.04 L4.02 5.41 L8.24 2.35 L16.78 -1.6" stroke="none" stroke-width="0" fill="#a5d8ff"></path><path d="M15 0 M15 0 C27.71 -1.9, 41.27 1.62, 52 0 M15 0 C24.22 -0.47, 36.04 -0.56, 52 0 M52 0 C61.37 0.67, 66.33 6.1, 67 15 M52 0 C62.62 -2.08, 65.44 3.53, 67 15 M67 15 C67.47 23.77, 66.62 35.62, 67 45 M67 15 C66.48 25.23, 67.07 33.84, 67 45 M67 45 C67.32 55.25, 62.53 61.61, 52 60 M67 45 C64.72 53.8, 60.1 60.12, 52 60 M52 60 C40.79 60.34, 29.38 61.49, 15 60 M52 60 C43.06 59.57, 34.07 60.41, 15 60 M15 60 C3.37 59.57, 0.11 56.67, 0 45 M15 60 C5.61 61.54, -1.88 54.1, 0 45 M0 45 C0.04 36.18, 0.68 23.85, 0 15 M0 45 C-0.55 33.89, 0.21 21.94, 0 15 M0 15 C-1.51 6.6, 4.74 0.72, 15 0 M0 15 C-0.51 6.39, 3.83 -1.93, 15 0" stroke="#1e1e1e" stroke-width="1" fill="none"></path></g><g transform="translate(87.20393371582031 274.79296875) rotate(0 26.799972534179688 12.5)"><text x="26.799972534179688" y="0" font-family="Virgil, Segoe UI Emoji" font-size="20px" fill="#1e1e1e" text-anchor="middle" style="white-space: pre;" direction="ltr" dominant-baseline="text-before-edge">nodes</text></g><g stroke-linecap="round" transform="translate(44.08984375 343.19921875) rotate(0 85.03515625 17.5)"><path d="M9.36 -0.66 L164.98 -0.9 L169.38 4.6 L168.46 29.78 L163.4 33.07 L161.89 34.72 L3.89 34.35 L0.02 32.07 L1.82 9.83 L0.24 2.97 L10.04 -0.41" stroke="none" stroke-width="0" fill="#a5d8ff"></path><path d="M8.75 0 M8.75 0 C56.04 -2.27, 105.05 0.93, 161.32 0 M8.75 0 C64.78 0.96, 123.26 1.26, 161.32 0 M161.32 0 C167.22 1.73, 168.25 2.93, 170.07 8.75 M161.32 0 C168.15 -1.57, 167.83 3.2, 170.07 8.75 M170.07 8.75 C170.19 16.1, 170.25 19.26, 170.07 26.25 M170.07 8.75 C169.55 15.48, 169.5 21.51, 170.07 26.25 M170.07 26.25 C171.21 31.92, 166.85 36.41, 161.32 35 M170.07 26.25 C168.35 31.74, 166.62 36.48, 161.32 35 M161.32 35 C102.76 34.05, 46.02 34.78, 8.75 35 M161.32 35 C108.95 33.43, 57.56 33.91, 8.75 35 M8.75 35 C3.21 36.2, 0.53 32.88, 0 26.25 M8.75 35 C1.56 32.74, -1.95 33.56, 0 26.25 M0 26.25 C0.98 22.1, -0.9 13.21, 0 8.75 M0 26.25 C-0.06 21.71, 0.64 16.27, 0 8.75 M0 8.75 C-1.94 1.06, 2.43 -1.57, 8.75 0 M0 8.75 C2.24 2.69, 3.97 0.22, 8.75 0" stroke="#1e1e1e" stroke-width="1" fill="none"></path></g><g transform="translate(68.85505676269531 348.19921875) rotate(0 60.26994323730469 12.5)"><text x="60.26994323730469" y="0" font-family="Virgil, Segoe UI Emoji" font-size="20px" fill="#1e1e1e" text-anchor="middle" style="white-space: pre;" direction="ltr" dominant-baseline="text-before-edge">nginx service</text></g><g stroke-linecap="round" transform="translate(95.63671875 412.853515625) rotate(0 33.5 30)"><path d="M15.12 0.42 L54.83 2.19 L63.08 3.94 L67.3 10.02 L66.9 16.38 L66.07 46.8 L61.6 55.43 L60.26 60.88 L52.05 59.47 L11.95 59.4 L2.46 57 L1.74 47.34 L-0.87 11.67 L2.28 3.88 L10.43 0.55 L14.12 -0.04" stroke="none" stroke-width="0" fill="#a5d8ff"></path><path d="M15 0 M15 0 C26.96 -0.96, 39.2 -1.26, 52 0 M15 0 C24.19 -0.27, 34.33 0.35, 52 0 M52 0 C63.1 0.51, 68.44 3.38, 67 15 M52 0 C63.87 -1.2, 65.56 5.94, 67 15 M67 15 C65.27 25.14, 65.91 37.2, 67 45 M67 15 C67.31 22.25, 67.67 26.71, 67 45 M67 45 C68.22 55.01, 63.3 59.9, 52 60 M67 45 C67.27 56.7, 59.93 62.06, 52 60 M52 60 C39.66 61.52, 26.86 60.55, 15 60 M52 60 C37.95 58.8, 26.32 59.21, 15 60 M15 60 C3.94 58.52, -1.46 53.01, 0 45 M15 60 C3.79 61.26, 1.43 53.21, 0 45 M0 45 C0.18 35.88, -0.94 30.31, 0 15 M0 45 C-0.81 34.77, -0.17 24.42, 0 15 M0 15 C0.79 4.1, 6.73 1.01, 15 0 M0 15 C-1.9 5.43, 5.44 -1.49, 15 0" stroke="#1e1e1e" stroke-width="1" fill="none"></path></g><g stroke-linecap="round" transform="translate(82.9453125 420.185546875) rotate(0 33.5 30)"><path d="M14.32 1.95 L55.35 0.42 L64.49 5.33 L65.96 9.81 L66.3 13.28 L65.12 47.7 L64.95 58.07 L58.61 58.53 L52.47 59.64 L10.19 60.51 L5.25 55.08 L-0.87 48.7 L-1.24 11.62 L5.75 3.36 L7.56 0.89 L15.27 -0.49" stroke="none" stroke-width="0" fill="#a5d8ff"></path><path d="M15 0 M15 0 C24.68 -1.28, 31.41 1.73, 52 0 M15 0 C26.53 0.44, 37.43 0.36, 52 0 M52 0 C63.44 -1.62, 68.63 3.96, 67 15 M52 0 C60.56 0.94, 69.16 4.01, 67 15 M67 15 C65.8 23.17, 64.95 35.5, 67 45 M67 15 C67.51 23.62, 67.64 33.96, 67 45 M67 45 C68.3 54.9, 62.24 61.48, 52 60 M67 45 C64.93 57.06, 62.92 60.03, 52 60 M52 60 C38.4 60.54, 25.95 61.11, 15 60 M52 60 C44.61 59.17, 35.03 58.92, 15 60 M15 60 C3.54 58.01, -1.05 56.1, 0 45 M15 60 C6.43 58.21, -0.75 53.23, 0 45 M0 45 C-1.16 36.79, 0.82 26.11, 0 15 M0 45 C0.09 35.74, 0.63 26.29, 0 15 M0 15 C1.73 6.01, 3.34 0.38, 15 0 M0 15 C0.44 3.51, 4.91 0.88, 15 0" stroke="#1e1e1e" stroke-width="1" fill="none"></path></g><g transform="translate(94.28533172607422 425.185546875) rotate(0 22.15998077392578 25)"><text x="22.15998077392578" y="0" font-family="Virgil, Segoe UI Emoji" font-size="20px" fill="#1e1e1e" text-anchor="middle" style="white-space: pre;" direction="ltr" dominant-baseline="text-before-edge">nginx</text><text x="22.15998077392578" y="25" font-family="Virgil, Segoe UI Emoji" font-size="20px" fill="#1e1e1e" text-anchor="middle" style="white-space: pre;" direction="ltr" dominant-baseline="text-before-edge">pods</text></g><g transform="translate(32.03515625 190.57421875) rotate(0 41.88996124267578 12.5)"><text x="0" y="0" font-family="Virgil, Segoe UI Emoji" font-size="20px" fill="#1e1e1e" text-anchor="start" style="white-space: pre;" direction="ltr" dominant-baseline="text-before-edge">cluster 1</text></g><g stroke-linecap="round" transform="translate(523.5 216.8779296875) rotate(0 127 138.99609375)"><path d="M32 0 M32 0 C79.16 -0.4, 123.92 -0.59, 222 0 M32 0 C75.03 2.04, 119.45 1.94, 222 0 M222 0 C244.79 -1.48, 255.57 8.77, 254 32 M222 0 C241.33 -2.19, 252.37 10.36, 254 32 M254 32 C254.62 83.48, 253.77 138.86, 254 245.99 M254 32 C253.42 76.69, 253.25 122.03, 254 245.99 M254 245.99 C252.88 267.47, 242.92 279.17, 222 277.99 M254 245.99 C252.13 268.58, 244.45 279.6, 222 277.99 M222 277.99 C164.73 279, 106.93 281.1, 32 277.99 M222 277.99 C149.83 277.62, 76.07 277.36, 32 277.99 M32 277.99 C8.82 278.56, -1.77 267.54, 0 245.99 M32 277.99 C10.11 277.13, 1.9 266.44, 0 245.99 M0 245.99 C2.43 195.82, 0.81 142.98, 0 32 M0 245.99 C-0.91 163.07, -0.48 79, 0 32 M0 32 C-1.6 10.84, 10.74 1.39, 32 0 M0 32 C0.93 11.13, 9.89 0.81, 32 0" stroke="#1e1e1e" stroke-width="1" fill="none"></path></g><g stroke-linecap="round" transform="translate(618.66015625 240.6103515625) rotate(0 33.5 30)"><path d="M14.08 1.73 L54.24 1.31 L61.79 2.31 L65.95 7.11 L66.38 16.55 L68.29 49.87 L64.7 54.77 L60.13 57.16 L50.26 58.1 L10.07 59.5 L2.7 56.05 L2.04 49.44 L-1.43 11.44 L4.87 1.93 L7.31 2.68 L16.08 -0.14" stroke="none" stroke-width="0" fill="#b2f2bb"></path><path d="M15 0 M15 0 C27.54 -0.2, 40.97 -1.42, 52 0 M15 0 C28.16 -0.97, 42.22 -0.04, 52 0 M52 0 C61.16 0.35, 68.26 6.67, 67 15 M52 0 C61.37 -0.05, 68.5 4.25, 67 15 M67 15 C67.39 21.37, 67.04 30.79, 67 45 M67 15 C66.63 21.96, 67.32 31.16, 67 45 M67 45 C67.93 53.97, 60.82 61.78, 52 60 M67 45 C67.81 55.1, 61.34 60.85, 52 60 M52 60 C40.29 59.78, 29.63 60.51, 15 60 M52 60 C39.34 60.94, 28.04 59.45, 15 60 M15 60 C4.52 61.8, 1.51 54.88, 0 45 M15 60 C4.14 58.63, 0.03 57.23, 0 45 M0 45 C1.15 34.05, 1.92 24.47, 0 15 M0 45 C0.06 37.2, -0.73 29.79, 0 15 M0 15 C1.47 3.51, 6.41 -1.66, 15 0 M0 15 C-0.27 6.29, 6.65 -1.68, 15 0" stroke="#1e1e1e" stroke-width="1" fill="none"></path></g><g stroke-linecap="round" transform="translate(606.6328125 246.3916015625) rotate(0 33.5 30)"><path d="M13.73 1.07 L54.05 -1.2 L63.14 2.42 L65.44 9.99 L68.53 16.35 L68.22 47.03 L64.82 54.35 L56.82 57.16 L50.58 59.74 L10.43 59.56 L5.55 57.18 L-1.43 48.47 L1.36 9.67 L2.62 5.49 L9.52 0.79 L15.7 1.19" stroke="none" stroke-width="0" fill="#b2f2bb"></path><path d="M15 0 M15 0 C25.19 -1.55, 34.13 1.05, 52 0 M15 0 C29.67 0.48, 41.97 0.44, 52 0 M52 0 C63.26 1.67, 66.45 4.96, 67 15 M52 0 C63.5 -0.75, 66.34 3.65, 67 15 M67 15 C67.3 20.74, 66.33 29.1, 67 45 M67 15 C66.89 23.26, 67.28 30.19, 67 45 M67 45 C65.82 56.78, 62.71 60.09, 52 60 M67 45 C66.34 55.85, 62.48 58.67, 52 60 M52 60 C45.24 60.82, 36.12 59.34, 15 60 M52 60 C39.34 59.62, 26.95 61.2, 15 60 M15 60 C6.51 59.88, -0.75 53.81, 0 45 M15 60 C5.03 62.23, 1.48 55.41, 0 45 M0 45 C1.8 35.34, -1.31 21.38, 0 15 M0 45 C-0.92 33.83, 0.79 23.09, 0 15 M0 15 C1.41 3.34, 4.76 1.12, 15 0 M0 15 C1.65 3.32, 6.23 -0.65, 15 0" stroke="#1e1e1e" stroke-width="1" fill="none"></path></g><g stroke-linecap="round" transform="translate(594.00390625 253.7236328125) rotate(0 33.5 30)"><path d="M13.54 -1.44 L55.4 -1.09 L62.63 5.3 L67.59 9.79 L68.45 13.52 L68.33 46.62 L61.51 54.35 L57.14 58.8 L50.95 59.8 L13.29 60.69 L2.08 56.2 L1.36 46.7 L-0.89 13.22 L4.83 3.61 L9.14 2.13 L13.88 0.15" stroke="none" stroke-width="0" fill="#b2f2bb"></path><path d="M15 0 M15 0 C26.43 1.28, 37.08 0.38, 52 0 M15 0 C23.06 0.09, 32.59 0.75, 52 0 M52 0 C61.45 -0.04, 68.3 4.35, 67 15 M52 0 C61.34 -1.35, 64.87 5.65, 67 15 M67 15 C66.28 22.99, 66.27 26.45, 67 45 M67 15 C67.49 20.75, 66.43 28.42, 67 45 M67 45 C67.71 55.09, 61.43 60.74, 52 60 M67 45 C67.48 53.67, 60.16 60.2, 52 60 M52 60 C41.17 59.48, 30.23 58.54, 15 60 M52 60 C37.68 60.65, 24.59 59.69, 15 60 M15 60 C4.25 58.81, 0.03 56.94, 0 45 M15 60 C6.48 60.41, 1.52 56.38, 0 45 M0 45 C-1.43 34.38, 0.76 26.69, 0 15 M0 45 C1.03 36.74, 1 29.15, 0 15 M0 15 C-0.24 6.12, 6.43 -1.46, 15 0 M0 15 C1.23 4.35, 4.7 0.19, 15 0" stroke="#1e1e1e" stroke-width="1" fill="none"></path></g><g transform="translate(600.7039337158203 271.2236328125) rotate(0 26.799972534179688 12.5)"><text x="26.799972534179688" y="0" font-family="Virgil, Segoe UI Emoji" font-size="20px" fill="#1e1e1e" text-anchor="middle" style="white-space: pre;" direction="ltr" dominant-baseline="text-before-edge">nodes</text></g><g stroke-linecap="round" transform="translate(557.5546875 339.6298828125) rotate(0 85.03515625 17.5)"><path d="M8.13 1.55 L166.68 1.9 L170.98 3.44 L171.09 28.18 L163.41 32.55 L159.9 34.74 L3.87 34.25 L2.35 31.01 L-1.67 8.7 L3.31 0.37 L7.62 1.74" stroke="none" stroke-width="0" fill="#b2f2bb"></path><path d="M8.75 0 M8.75 0 C63.94 -1.66, 116.89 -0.95, 161.32 0 M8.75 0 C63.96 -0.13, 118.24 -1.54, 161.32 0 M161.32 0 C169.1 0.43, 169.23 3.26, 170.07 8.75 M161.32 0 C168.6 1.92, 169.44 2.87, 170.07 8.75 M170.07 8.75 C168.99 13.52, 170.51 19.98, 170.07 26.25 M170.07 8.75 C170.75 13.85, 169.49 18.83, 170.07 26.25 M170.07 26.25 C170.22 32.91, 168.09 33.97, 161.32 35 M170.07 26.25 C168.71 34.13, 167.96 35.1, 161.32 35 M161.32 35 C118.75 33.72, 78.67 35.4, 8.75 35 M161.32 35 C104.65 35.66, 47.84 36.12, 8.75 35 M8.75 35 C2.4 33.64, -0.48 33.88, 0 26.25 M8.75 35 C4.65 34.86, -0.86 30.72, 0 26.25 M0 26.25 C0.14 22.13, 0.88 15.68, 0 8.75 M0 26.25 C-0.84 19.73, -0.28 11.85, 0 8.75 M0 8.75 C-1.96 1.73, 4.38 -1.49, 8.75 0 M0 8.75 C1.63 1.01, 2.65 1.29, 8.75 0" stroke="#1e1e1e" stroke-width="1" fill="none"></path></g><g transform="translate(582.3199005126953 344.6298828125) rotate(0 60.26994323730469 12.5)"><text x="60.26994323730469" y="0" font-family="Virgil, Segoe UI Emoji" font-size="20px" fill="#1e1e1e" text-anchor="middle" style="white-space: pre;" direction="ltr" dominant-baseline="text-before-edge">nginx service</text></g><g stroke-linecap="round" transform="translate(609.13671875 409.2841796875) rotate(0 33.5 30)"><path d="M16.45 -1.48 L57.08 -1.66 L61.51 1.85 L64.64 8.18 L65.95 14.8 L68.57 49.44 L61.58 56.2 L59.68 57.25 L50.87 61.74 L12.56 59.62 L4.45 57.44 L-0.89 48.66 L-0.18 12.66 L2.12 4.84 L9.41 2.34 L15.07 -1.42" stroke="none" stroke-width="0" fill="#a5d8ff"></path><path d="M15 0 M15 0 C30.05 1.41, 46.07 -0.4, 52 0 M15 0 C25.73 -0.47, 36.11 0.4, 52 0 M52 0 C60.23 0.22, 66.51 4.25, 67 15 M52 0 C63.9 -0.88, 65.58 2.9, 67 15 M67 15 C66.09 23.03, 68.9 34.14, 67 45 M67 15 C67.12 23.56, 66.11 33.36, 67 45 M67 45 C67.08 56.39, 62.81 60.41, 52 60 M67 45 C66.22 55.81, 60.14 61.85, 52 60 M52 60 C43.66 61.42, 31.6 59.16, 15 60 M52 60 C43.74 60.54, 34.85 60.96, 15 60 M15 60 C4.98 61.98, 1.32 53.87, 0 45 M15 60 C3.09 61.21, -0.44 53.86, 0 45 M0 45 C-1.31 40.35, -1.48 32.63, 0 15 M0 45 C0.32 34.03, -0.35 23.72, 0 15 M0 15 C-0.4 5.88, 5.63 -0.16, 15 0 M0 15 C-0.88 7, 6.2 0, 15 0" stroke="#1e1e1e" stroke-width="1" fill="none"></path></g><g stroke-linecap="round" transform="translate(596.4453125 416.6162109375) rotate(0 33.5 30)"><path d="M16.57 -1.9 L53.77 -1.67 L61.83 3.49 L65.01 8.24 L68.8 15.93 L65.1 48.47 L64.37 54.43 L57.44 60.8 L53.08 59.86 L12.19 60.96 L2.63 56.4 L-0.18 49.69 L-1.4 12.58 L4.72 5.15 L8.51 -0.48 L16.95 0.43" stroke="none" stroke-width="0" fill="#b2f2bb"></path><path d="M15 0 M15 0 C26.21 -0.78, 34.04 1.07, 52 0 M15 0 C23.97 0.5, 33.9 0.33, 52 0 M52 0 C61.51 -0.75, 68.65 4.23, 67 15 M52 0 C60.58 -2.1, 67.17 5.95, 67 15 M67 15 C68.63 26.11, 66.94 35.23, 67 45 M67 15 C66.26 25.19, 67.1 35.9, 67 45 M67 45 C67.81 55.41, 61.33 60.7, 52 60 M67 45 C65.14 56.85, 61.4 58.44, 52 60 M52 60 C41.67 59.53, 30.4 60.31, 15 60 M52 60 C37.97 60.67, 22.6 61.06, 15 60 M15 60 C6.32 58.87, -1.66 56.06, 0 45 M15 60 C4.56 58.86, -2.25 53.64, 0 45 M0 45 C-1.44 33.56, 1.35 24.03, 0 15 M0 45 C-0.29 38.28, -0.36 31.83, 0 15 M0 15 C0.63 4.84, 4.24 1.74, 15 0 M0 15 C1.2 5, 4.42 1.29, 15 0" stroke="#1e1e1e" stroke-width="1" fill="none"></path></g><g transform="translate(607.7853317260742 421.6162109375) rotate(0 22.15998077392578 25)"><text x="22.15998077392578" y="0" font-family="Virgil, Segoe UI Emoji" font-size="20px" fill="#1e1e1e" text-anchor="middle" style="white-space: pre;" direction="ltr" dominant-baseline="text-before-edge">nginx</text><text x="22.15998077392578" y="25" font-family="Virgil, Segoe UI Emoji" font-size="20px" fill="#1e1e1e" text-anchor="middle" style="white-space: pre;" direction="ltr" dominant-baseline="text-before-edge">pods</text></g><g transform="translate(674.22265625 188.2080078125) rotate(0 46.299957275390625 12.5)"><text x="0" y="0" font-family="Virgil, Segoe UI Emoji" font-size="20px" fill="#1e1e1e" text-anchor="start" style="white-space: pre;" direction="ltr" dominant-baseline="text-before-edge">cluster 2</text></g></svg>