<svg version="1.1" xmlns="http://www.w3.org/2000/svg" viewBox="0 0 1092.7307279628856 546.5673039616845" width="1092.7307279628856" height="546.5673039616845">
  <!-- svg-source:excalidraw -->
  
  <defs>
    <style class="style-fonts">
      @font-face {
        font-family: "Virgil";
        src: url("https://excalidraw.com/Virgil.woff2");
      }
      @font-face {
        font-family: "Cascadia";
        src: url("https://excalidraw.com/Cascadia.woff2");
      }
      @font-face {
        font-family: "Assistant";
        src: url("https://excalidraw.com/Assistant-Regular.woff2");
      }
    </style>
    
  </defs>
  <rect x="0" y="0" width="1092.7307279628856" height="546.5673039616845" fill="#ffffff"></rect><g stroke-linecap="round" transform="translate(11.001663775736574 12.05904260584225) rotate(359.7794291070467 535.3637002057062 261.224609375)"><path d="M32 0 C335.36 -3.67, 639.62 -3.25, 1038.73 0 M32 0 C427.85 -2.63, 823.57 -2.19, 1038.73 0 M1038.73 0 C1061.96 0, 1072.68 12.61, 1070.73 32 M1038.73 0 C1061.94 -1.56, 1072.7 9.33, 1070.73 32 M1070.73 32 C1068.62 200.51, 1069.33 370.7, 1070.73 490.45 M1070.73 32 C1069.63 166.45, 1069.18 300.03, 1070.73 490.45 M1070.73 490.45 C1071.1 513.66, 1060.39 523.83, 1038.73 522.45 M1070.73 490.45 C1071.56 510.88, 1058.6 524.37, 1038.73 522.45 M1038.73 522.45 C663.18 520.64, 287.78 519.8, 32 522.45 M1038.73 522.45 C781.56 519.96, 523.85 520.14, 32 522.45 M32 522.45 C8.89 522.48, 0.21 512.17, 0 490.45 M32 522.45 C12.58 523.69, 1.51 511.56, 0 490.45 M0 490.45 C1.62 319.71, 0.8 148.43, 0 32 M0 490.45 C1.19 388.14, 1.14 285.6, 0 32 M0 32 C0.46 10.81, 8.91 1.22, 32 0 M0 32 C-0.23 11.83, 11.39 0.5, 32 0" stroke="#1e1e1e" stroke-width="1" fill="none"></path></g><g stroke-linecap="round" transform="translate(133.4663925223133 118.50342095313778) rotate(0 136.109375 126.296875)"><path d="M32 0 C80.3 0.75, 136.7 4.41, 240.22 0 C258.76 -1.18, 269.45 11.32, 272.22 32 C272.75 89.59, 270.71 144.39, 272.22 220.59 C269.41 241.92, 261.05 252.14, 240.22 252.59 C171.17 252.83, 99.52 256.08, 32 252.59 C8.33 252.45, 1.37 244.88, 0 220.59 C3.83 153.37, 2.44 82.04, 0 32 C-1.57 10.04, 13.32 -0.78, 32 0" stroke="none" stroke-width="0" fill="#e9ecef"></path><path d="M32 0 C87.52 1.25, 144.12 0.07, 240.22 0 M32 0 C108.06 1.22, 186.33 2.39, 240.22 0 M240.22 0 C261.6 -0.53, 272.69 10.31, 272.22 32 M240.22 0 C260.07 0.86, 273.95 9.32, 272.22 32 M272.22 32 C272.53 80.13, 272.01 123.39, 272.22 220.59 M272.22 32 C271.82 88.34, 271.87 144.82, 272.22 220.59 M272.22 220.59 C270.72 240.99, 263.06 252.51, 240.22 252.59 M272.22 220.59 C271.82 241.28, 262.91 253.36, 240.22 252.59 M240.22 252.59 C164.89 255.37, 91.5 252.81, 32 252.59 M240.22 252.59 C169.41 251.09, 97.51 251.37, 32 252.59 M32 252.59 C9.23 250.78, 1.29 242.24, 0 220.59 M32 252.59 C10.92 254.82, 1.09 239.95, 0 220.59 M0 220.59 C-0.12 152.74, 1.46 82.62, 0 32 M0 220.59 C-0.07 147.27, -0.12 73.73, 0 32 M0 32 C0.3 11.83, 11.54 -1.56, 32 0 M0 32 C-1.82 8.57, 12.58 -1.15, 32 0" stroke="#1e1e1e" stroke-width="1" fill="none"></path></g><g transform="translate(485.1265487723133 37.06787407813778) rotate(0 52.24609375 11.5)"><text x="0" y="18.400390625" font-family="Helvetica, Segoe UI Emoji" font-size="20px" fill="#1e1e1e" text-anchor="start" style="white-space: pre;" direction="ltr" dominant-baseline="alphabetic">Kind cluster</text></g><g stroke-linecap="round" transform="translate(214.6812362723133 200.10596001563778) rotate(0 54.08984375 48.08984375)"><path d="M24.04 0 C47.36 0.81, 63.73 -2.48, 84.13 0 C99.68 -1.71, 108.77 6.94, 108.18 24.04 C108.37 36.82, 109.75 58.3, 108.18 72.13 C111.34 91.36, 96.83 96.06, 84.13 96.18 C59.29 100.58, 39.53 97.5, 24.04 96.18 C5.76 99.5, 0.51 87.26, 0 72.13 C4.2 53.56, -2.26 35.02, 0 24.04 C3.2 6.49, 4.45 2.54, 24.04 0" stroke="none" stroke-width="0" fill="#a5d8ff"></path><path d="M24.04 0 C39.66 0.38, 52.3 -0.33, 84.13 0 M24.04 0 C40.43 0.66, 59.3 0.89, 84.13 0 M84.13 0 C98.22 0.88, 108.63 8.21, 108.18 24.04 M84.13 0 C98.32 -1.83, 106.48 8.68, 108.18 24.04 M108.18 24.04 C108.87 41.13, 108.36 58.08, 108.18 72.13 M108.18 24.04 C108.81 42.09, 109.14 59.74, 108.18 72.13 M108.18 72.13 C109.06 88.2, 101.14 94.26, 84.13 96.18 M108.18 72.13 C106.12 87.15, 101.1 94.34, 84.13 96.18 M84.13 96.18 C67.89 95.41, 50.57 95.49, 24.04 96.18 M84.13 96.18 C64.79 95.55, 45.72 96.98, 24.04 96.18 M24.04 96.18 C6.75 96.08, 0.52 86.45, 0 72.13 M24.04 96.18 C8.19 95.3, -0.26 89.19, 0 72.13 M0 72.13 C0.34 60.29, 1.12 47.84, 0 24.04 M0 72.13 C0.46 60.9, 0.68 49.81, 0 24.04 M0 24.04 C-1.57 7, 7.36 1.4, 24.04 0 M0 24.04 C-0.71 6.87, 9.03 -0.6, 24.04 0" stroke="#1e1e1e" stroke-width="1" fill="none"></path></g><g transform="translate(223.1851425223133 236.69580376563778) rotate(0 45.5859375 11.5)"><text x="45.5859375" y="18.400390625" font-family="Helvetica, Segoe UI Emoji" font-size="20px" fill="#1e1e1e" text-anchor="middle" style="white-space: pre;" direction="ltr" dominant-baseline="alphabetic">pod: client</text></g><g stroke-linecap="round" transform="translate(659.3863143973133 115.19775689063778) rotate(0 137.138671875 125.115234375)"><path d="M32 0 C97 3.5, 153.12 3.29, 242.28 0 C264.54 1.79, 274.1 7.69, 274.28 32 C272.18 91.68, 271.63 158.76, 274.28 218.23 C272.4 237.01, 264.26 249.49, 242.28 250.23 C187.04 246.54, 134.43 245.61, 32 250.23 C11.4 248.41, 3.5 239.2, 0 218.23 C-3.14 169.09, -0.77 122.64, 0 32 C-1.75 7.47, 14.24 3.41, 32 0" stroke="none" stroke-width="0" fill="#e9ecef"></path><path d="M32 0 C84.14 1.82, 134.79 0.29, 242.28 0 M32 0 C75.22 -2.22, 119.2 -2.18, 242.28 0 M242.28 0 C262.33 -0.55, 272.43 11.94, 274.28 32 M242.28 0 C263.98 1.23, 272.77 11.05, 274.28 32 M274.28 32 C274.01 102.33, 276.63 175.32, 274.28 218.23 M274.28 32 C273.31 92.32, 272.43 154.73, 274.28 218.23 M274.28 218.23 C272.43 237.78, 265.06 250.59, 242.28 250.23 M274.28 218.23 C272.76 238.08, 265.24 250.75, 242.28 250.23 M242.28 250.23 C165.67 249.31, 91.51 249.32, 32 250.23 M242.28 250.23 C160.67 249.12, 79.62 249.62, 32 250.23 M32 250.23 C10.14 248.63, -0.17 238.09, 0 218.23 M32 250.23 C12.9 249.16, -0.25 241.4, 0 218.23 M0 218.23 C2.93 180.7, 1.97 138.11, 0 32 M0 218.23 C1.11 165.57, 0.13 113.12, 0 32 M0 32 C1.24 11.21, 12.47 1.88, 32 0 M0 32 C-2.3 9.97, 11.27 -0.32, 32 0" stroke="#1e1e1e" stroke-width="1" fill="none"></path></g><g stroke-linecap="round" transform="translate(739.8941268973133 198.26123345313778) rotate(0 56.125 48.123046875)"><path d="M24.06 0 C37.86 1.6, 59.21 0.92, 88.19 0 C104.06 -2.97, 113.53 4.65, 112.25 24.06 C112.98 37.74, 110.62 45.33, 112.25 72.18 C112.9 87.49, 102.41 97.92, 88.19 96.25 C69.03 92.28, 57.14 93.71, 24.06 96.25 C11.52 95.88, -1.22 89.87, 0 72.18 C1.15 59.48, -1.36 36.64, 0 24.06 C3.57 11.43, 8.18 0.64, 24.06 0" stroke="none" stroke-width="0" fill="#b2f2bb"></path><path d="M24.06 0 C43.36 -0.62, 58.07 0.19, 88.19 0 M24.06 0 C47.5 -0.29, 71.5 0.32, 88.19 0 M88.19 0 C102.38 1.28, 112.57 9.09, 112.25 24.06 M88.19 0 C102.72 0.38, 114.27 9, 112.25 24.06 M112.25 24.06 C113.55 37.03, 112.55 51.25, 112.25 72.18 M112.25 24.06 C111.49 41.16, 111.36 56.09, 112.25 72.18 M112.25 72.18 C113.69 88.58, 102.91 94.95, 88.19 96.25 M112.25 72.18 C113.88 88.74, 105.6 95.24, 88.19 96.25 M88.19 96.25 C74.81 97.22, 62.26 98.4, 24.06 96.25 M88.19 96.25 C70.67 95.39, 51.87 94.89, 24.06 96.25 M24.06 96.25 C7.85 94.77, 1.94 87.3, 0 72.18 M24.06 96.25 C7.77 98.08, -2.03 86.03, 0 72.18 M0 72.18 C-0.08 56.77, -0.66 42.93, 0 24.06 M0 72.18 C-0.82 59.66, 0.47 48.32, 0 24.06 M0 24.06 C1.81 9.9, 6.02 -0.6, 24.06 0 M0 24.06 C0.6 7.7, 7.9 2.24, 24.06 0" stroke="#1e1e1e" stroke-width="1" fill="none"></path></g><g transform="translate(745.9947128348133 234.88428032813778) rotate(0 50.0244140625 11.5)"><text x="50.0244140625" y="18.400390625" font-family="Helvetica, Segoe UI Emoji" font-size="20px" fill="#1e1e1e" text-anchor="middle" style="white-space: pre;" direction="ltr" dominant-baseline="alphabetic">pod: server</text></g><g stroke-linecap="round"><g transform="translate(68.6265487723133 468.1743193906378) rotate(0 481.701171875 -2.052734375)"><path d="M-0.9 0.1 C159.8 -0.64, 802.29 -2.87, 963.14 -3.61 M0.84 -0.89 C161.44 -2.06, 801.55 -5.1, 962.06 -5.47" stroke="#1e1e1e" stroke-width="2" fill="none"></path></g></g><mask></mask><g stroke-linecap="round"><g transform="translate(275.4429550223133 466.2055693906378) rotate(0 -0.0546875 -47.1953125)"><path d="M-0.08 0.42 C0.07 -15.43, 0.11 -78.39, 0.13 -94.34 M-1.59 -0.4 C-1.51 -16.11, -0.85 -77.1, -0.69 -92.78" stroke="#1e1e1e" stroke-width="2" fill="none"></path></g></g><mask></mask><g stroke-linecap="round"><g transform="translate(800.7007675223133 461.7446318906378) rotate(0 -0.826171875 -48.107421875)"><path d="M-0.24 -0.18 C-0.35 -16.18, -0.05 -80.82, -0.47 -97.02 M1.83 -1.33 C1.65 -17.1, -0.41 -80.01, -0.8 -95.9" stroke="#1e1e1e" stroke-width="2" fill="none"></path></g></g><mask></mask><g transform="translate(164.0630722098133 139.74072564063778) rotate(0 107.2900390625 11.5)"><text x="107.2900390625" y="18.400390625" font-family="Helvetica, Segoe UI Emoji" font-size="20px" fill="#1e1e1e" text-anchor="middle" style="white-space: pre;" direction="ltr" dominant-baseline="alphabetic">node: kind-control-plane</text></g><g transform="translate(713.3980331473133 134.87744439063778) rotate(0 79.482421875 11.5)"><text x="79.482421875" y="18.400390625" font-family="Helvetica, Segoe UI Emoji" font-size="20px" fill="#1e1e1e" text-anchor="middle" style="white-space: pre;" direction="ltr" dominant-baseline="alphabetic">node: kind-worker</text></g><g transform="translate(458.1617050223133 439.06806939063773) rotate(0 82.86328125 9.199999999999989)"><text x="82.86328125" y="14.720312499999999" font-family="Helvetica, Segoe UI Emoji" font-size="16px" fill="#1e1e1e" text-anchor="middle" style="white-space: pre;" direction="ltr" dominant-baseline="alphabetic">Network: fc00:c111::/64</text></g><g transform="translate(161.7007675223133 331.86494439063773) rotate(0 98.28515625 9.199999999999989)"><text x="98.28515625" y="14.720312499999999" font-family="Helvetica, Segoe UI Emoji" font-size="16px" fill="#1e1e1e" text-anchor="middle" style="white-space: pre;" direction="ltr" dominant-baseline="alphabetic">Pod CIDR: fd00:10:244::/64</text></g><g transform="translate(691.8374862723133 328.1235381406378) rotate(0 104.95703125 9.199999999999989)"><text x="104.95703125" y="14.720312499999999" font-family="Helvetica, Segoe UI Emoji" font-size="16px" fill="#1e1e1e" text-anchor="middle" style="white-space: pre;" direction="ltr" dominant-baseline="alphabetic">Pod CIDR: fd00:10:244:1::/64</text></g></svg>